<svg width="62" height="80" viewBox="0 0 62 80" fill="none" xmlns="http://www.w3.org/2000/svg">
<path d="M57.8493 42.2129C53.3693 43.7364 50.0338 45.8466 47.2094 48.455C40.6221 47.2054 33.8315 47.5475 27.4031 49.4529C27.7481 48.0713 28.0237 46.7946 28.2543 45.5371C28.2898 45.3474 28.2824 45.1522 28.2324 44.9657C28.1825 44.7793 28.0913 44.6065 27.9657 44.46C27.8401 44.3135 27.6832 44.197 27.5066 44.1192C27.33 44.0414 27.1381 44.0042 26.9452 44.0104C23.4544 44.1543 19.9736 43.5436 16.7402 42.2199C13.5069 40.8961 10.5971 38.8906 8.20931 36.34C8.07377 36.1965 7.90711 36.0861 7.72216 36.0172C7.53721 35.9482 7.33891 35.9227 7.14252 35.9424C6.94614 35.9622 6.75691 36.0268 6.58942 36.1312C6.42193 36.2357 6.28064 36.3771 6.17644 36.5448C-4.54247 53.8217 1.777 71.5178 2.56693 72.9768C2.8412 73.4825 3.27878 73.8803 3.80825 74.1053C4.121 74.2471 7.14854 75.2338 9.95039 75.9979C23.0746 79.5993 36.4067 82.1916 51.6492 77.3327C52.1634 77.7206 52.7079 78.0667 53.2774 78.3677C54.9155 79.235 56.7275 79.7232 58.5796 79.796C58.9267 79.8095 59.2729 79.7527 59.5974 79.6291C59.922 79.5055 60.2183 79.3177 60.4685 79.0768C60.7187 78.8359 60.9177 78.547 61.0535 78.2274C61.1893 77.9077 61.2592 77.564 61.2589 77.2166V44.6521C61.2585 44.2423 61.1604 43.8386 60.9728 43.4743C60.7852 43.11 60.5136 42.7956 60.1803 42.5572C59.847 42.3188 59.4618 42.1632 59.0564 42.1034C58.6511 42.0435 58.2373 42.0811 57.8493 42.2129ZM25.9538 14.3477C24.9016 14.3477 23.873 14.6597 22.9982 15.2442C22.1233 15.8288 21.4414 16.6597 21.0388 17.6318C20.6361 18.6038 20.5308 19.6735 20.736 20.7055C20.9413 21.7375 21.448 22.6854 22.192 23.4294C22.936 24.1734 23.8839 24.6801 24.9159 24.8853C25.9479 25.0906 27.0175 24.9853 27.9896 24.5826C28.9617 24.18 29.7926 23.4981 30.3772 22.6232C30.9617 21.7484 31.2737 20.7198 31.2737 19.6676C31.2737 18.2567 30.7132 16.9035 29.7156 15.9058C28.7179 14.9082 27.3647 14.3477 25.9538 14.3477Z" fill="#EB3223"/>
<path opacity="0.3" d="M45.3354 19.6677C45.3354 23.5576 44.182 27.3602 42.0208 30.5945C39.8597 33.8289 36.788 36.3497 33.1942 37.8383C29.6004 39.3269 25.6459 39.7164 21.8307 38.9575C18.0156 38.1986 14.5111 36.3255 11.7606 33.5749C9.00997 30.8243 7.1368 27.3199 6.37792 23.5047C5.61904 19.6895 6.00852 15.735 7.49713 12.1412C8.98573 8.5474 11.5066 5.47572 14.7409 3.31461C17.9753 1.15349 21.7778 0 25.6677 0C30.8821 0.00597343 35.8812 2.08002 39.5683 5.76714C43.2554 9.45426 45.3295 14.4533 45.3354 19.6677ZM36.1464 19.6677C36.1464 17.5952 35.5319 15.5693 34.3805 13.8461C33.229 12.1228 31.5925 10.7798 29.6778 9.98666C27.763 9.19355 25.6561 8.98604 23.6234 9.39036C21.5908 9.79468 19.7236 10.7927 18.2582 12.2582C16.7927 13.7236 15.7947 15.5908 15.3904 17.6234C14.986 19.6561 15.1936 21.763 15.9867 23.6777C16.7798 25.5925 18.1229 27.229 19.8461 28.3804C21.5693 29.5319 23.5952 30.1464 25.6677 30.1464C28.4458 30.143 31.1091 29.0379 33.0735 27.0735C35.0379 25.1091 36.143 22.4458 36.1464 19.6677Z" fill="#EB3223"/>
</svg>
