<svg width="80" height="80" viewBox="0 0 80 80" fill="none" xmlns="http://www.w3.org/2000/svg">
<path opacity="0.3" d="M1.20785 56.4604L23.5395 78.792C25.1377 80.3902 27.7315 80.4027 29.3448 78.8276L1.17229 50.655C-0.402822 52.2693 -0.390377 54.8622 1.20785 56.4604Z" fill="#EB3223"/>
<path opacity="0.3" d="M50.0962 23.0132L23.012 50.0974L29.902 56.9874L56.9862 29.9032L50.0962 23.0132Z" fill="#EB3223"/>
<path d="M2.9484 41.0109L2.72973 41.2295C0.648833 43.3104 0.648833 46.6962 2.72973 48.7771L3.44884 49.4962H3.44262L30.5031 76.5567V76.5514L31.2223 77.2705C33.3031 79.3514 36.688 79.3514 38.7698 77.2696L38.9885 77.051C41.0694 74.9701 41.0694 71.5843 38.9894 69.5034L10.4969 41.0109C8.41508 38.93 5.03018 38.93 2.9484 41.0109Z" fill="#EB3223"/>
<path d="M41.2293 2.72962L41.0107 2.94828C38.9298 5.02918 38.9298 8.41497 41.0107 10.4959L69.5041 38.9893C71.585 41.0702 74.9699 41.0702 77.0516 38.9884L77.2703 38.7697C79.3512 36.6888 79.3512 33.303 77.2712 31.2221L48.7778 2.72962C46.696 0.648722 43.3111 0.648722 41.2293 2.72962Z" fill="#EB3223"/>
<path opacity="0.3" d="M50.6479 1.17949L78.8249 29.3476C80.4027 27.7342 80.392 25.1387 78.792 23.5396L56.4604 1.20794C54.8595 -0.392958 52.2604 -0.402736 50.6479 1.17949Z" fill="#EB3223"/>
<path d="M7.28873 72.7114C8.76518 74.1878 10.8754 74.7896 12.9341 74.322L14.6461 73.9318L6.06828 65.354L5.67806 67.066C5.20961 69.1247 5.81228 71.2349 7.28873 72.7114Z" fill="#EB3223"/>
<path d="M67.0658 5.67849L65.3538 6.06871L73.9316 14.6465L74.3218 12.9345C74.7903 10.8758 74.1876 8.76561 72.7112 7.28916C71.2347 5.81271 69.1245 5.21004 67.0658 5.67849Z" fill="#EB3223"/>
</svg>
