<svg width="64" height="80" viewBox="0 0 64 80" fill="none" xmlns="http://www.w3.org/2000/svg">
<path d="M31.763 79.9999C27.1481 79.9999 22.6369 78.6315 18.7997 76.0676C14.9626 73.5037 11.9719 69.8595 10.2058 65.5959C8.4398 61.3323 7.97772 56.6407 8.87804 52.1145C9.77836 47.5883 12.0006 43.4307 15.2639 40.1674C18.5271 36.9042 22.6847 34.6819 27.2109 33.7816C31.7371 32.8813 36.4287 33.3434 40.6923 35.1094C44.9559 36.8755 48.6001 39.8661 51.164 43.7033C53.7279 47.5404 55.0964 52.0517 55.0964 56.6666C55.0964 62.855 52.638 68.7899 48.2622 73.1658C43.8863 77.5416 37.9514 79.9999 31.763 79.9999ZM31.763 63.7333L36.5964 66.2749C36.8676 66.4056 37.1691 66.4604 37.4689 66.4334C37.7687 66.4065 38.0556 66.2988 38.2992 66.1219C38.5428 65.945 38.7339 65.7055 38.8522 65.4287C38.9706 65.1519 39.0117 64.8482 38.9714 64.5499L38.0464 59.1666L41.963 55.3499C42.1711 55.1323 42.3163 54.8623 42.3832 54.5688C42.4501 54.2752 42.4362 53.969 42.3431 53.6827C42.2499 53.3963 42.0809 53.1406 41.8541 52.9426C41.6272 52.7446 41.351 52.6118 41.0547 52.5583L35.6464 51.7749L33.2297 46.8749C33.0869 46.6103 32.8752 46.3893 32.617 46.2353C32.3588 46.0812 32.0637 45.9999 31.763 45.9999C31.4624 45.9999 31.1673 46.0812 30.9091 46.2353C30.6509 46.3893 30.4392 46.6103 30.2964 46.8749L27.8797 51.7749L22.4714 52.5583C22.1751 52.6118 21.8988 52.7446 21.672 52.9426C21.4451 53.1406 21.2761 53.3963 21.183 53.6827C21.0898 53.969 21.076 54.2752 21.1429 54.5688C21.2098 54.8623 21.355 55.1323 21.563 55.3499L25.4797 59.1666L24.5547 64.5499C24.5143 64.8482 24.5555 65.1519 24.6739 65.4287C24.7922 65.7055 24.9833 65.945 25.2269 66.1219C25.4704 66.2988 25.7574 66.4065 26.0572 66.4334C26.357 66.4604 26.6585 66.4056 26.9297 66.2749L31.763 63.7333Z" fill="#EB3223"/>
<path opacity="0.3" d="M0.371335 3.19167C-0.528665 1.88333 0.313002 0 1.763 0H19.6463C20.1911 0.00692899 20.7259 0.147286 21.2038 0.408786C21.6818 0.670285 22.0884 1.04496 22.388 1.5L28.1463 9.83333L16.563 26.6667L0.371335 3.19167ZM31.763 27.4583C36.1584 27.4533 40.4977 28.4448 44.4547 30.3583L63.1547 3.19167C64.0547 1.88333 63.213 0 61.763 0H43.8797C43.3349 0.00692899 42.8001 0.147286 42.3222 0.408786C41.8442 0.670285 41.4376 1.04496 41.138 1.5L22.1547 29.0833C25.2434 28.0056 28.4917 27.4562 31.763 27.4583Z" fill="#EB3223"/>
</svg>
