<svg width="139" height="30" viewBox="0 0 139 30" fill="none" xmlns="http://www.w3.org/2000/svg">
<path d="M31.9324 28.9416C31.7024 29.2177 31.1962 29.4017 30.6901 29.4017C29.4938 29.4017 28.7116 28.6195 28.7116 27.4232C28.7116 26.3189 29.4018 25.4447 30.6901 25.4447C31.1962 25.4447 31.6103 25.5827 31.8864 25.8588L31.5643 26.3649C31.3343 26.2269 31.0582 26.0888 30.6901 26.0888C29.9539 26.0888 29.4478 26.595 29.4478 27.4692C29.4478 28.2974 29.9999 28.8496 30.7821 28.8496C31.1042 28.8496 31.4263 28.7575 31.7024 28.5275L31.9324 28.9416Z" fill="white"/>
<path d="M32.1625 25.4447H35.3373V26.0888H34.095V29.3097H33.4048V26.0888H32.1625V25.4447Z" fill="white"/>
<path d="M35.9815 29.3097V25.4447C36.2116 25.4447 36.8098 25.4447 37.0858 25.4447C38.2361 25.4447 38.6042 26.0428 38.6042 26.687C38.6042 27.3312 38.0981 27.9293 37.1779 27.9293C37.0398 27.9293 36.8558 27.9293 36.6717 27.9293V29.3097H35.9815ZM36.6257 26.0888V27.2852C36.7637 27.2852 36.9478 27.3312 37.0858 27.3312C37.4999 27.3312 37.822 27.1471 37.822 26.687C37.822 26.2729 37.592 26.0888 37.0858 26.0888C36.9938 26.0428 36.8098 26.0888 36.6257 26.0888Z" fill="white"/>
<path d="M39.3864 25.4447H41.641V26.0888H40.0766V27.0551H41.4569V27.6533H40.0766V28.6655H41.687V29.3097H39.3864V25.4447Z" fill="white"/>
<path d="M42.6072 25.4447H43.2974L44.5858 27.2392L45.8741 25.4447H46.5183V29.3097H45.8281V26.503L44.6318 28.2514H44.4937L43.2974 26.549V29.3097H42.6072V25.4447Z" fill="white"/>
<path d="M49.3711 27.9753H48.8189L47.9447 29.3097H47.1625L48.1748 27.8373C47.8067 27.6533 47.4846 27.2852 47.4846 26.779C47.4846 26.0428 47.9447 25.4447 49.095 25.4447C49.3251 25.4447 49.8312 25.4447 50.0613 25.4447V29.3097H49.3711V27.9753ZM49.3711 27.3312V26.0888C49.2791 26.0888 49.049 26.0888 48.957 26.0888C48.4969 26.0888 48.2208 26.3649 48.2208 26.733C48.2208 27.1011 48.4969 27.2852 48.7729 27.3312H49.3711Z" fill="white"/>
<path d="M54.1103 28.9416C53.8802 29.2177 53.3741 29.4017 52.868 29.4017C51.6717 29.4017 50.8895 28.6195 50.8895 27.4232C50.8895 26.3189 51.5796 25.4447 52.868 25.4447C53.3741 25.4447 53.7882 25.5827 54.0643 25.8588L53.7422 26.3649C53.5122 26.2269 53.2361 26.0888 52.868 26.0888C52.1318 26.0888 51.6257 26.595 51.6257 27.4692C51.6257 28.2974 52.1778 28.8496 52.96 28.8496C53.2821 28.8496 53.6042 28.7575 53.8802 28.5275L54.1103 28.9416Z" fill="white"/>
<path d="M55.4907 26.779C55.6747 26.779 55.8128 26.733 55.9508 26.733C56.9631 26.733 57.4232 27.2391 57.4232 27.9753C57.4232 28.8036 56.8251 29.3097 55.8128 29.3097C55.4447 29.3097 55.0766 29.3097 54.8465 29.3097V25.4447H55.5367V26.779H55.4907ZM55.4907 27.4232V28.7115C55.6287 28.7115 55.7208 28.7115 55.8588 28.7115C56.3649 28.7115 56.687 28.5275 56.687 28.0214C56.687 27.6072 56.3649 27.3772 55.9048 27.3772C55.7668 27.3772 55.6287 27.3772 55.4907 27.4232Z" fill="white"/>
<path d="M59.4017 25.4447H60.0919V27.2852L61.6103 25.4447H62.4385L60.8741 27.2392L62.5305 29.3097H61.7023L60.0919 27.3312V29.3097H59.4017V25.4447Z" fill="white"/>
<path d="M64.371 25.4448C64.6011 25.4448 65.1073 25.3988 65.4754 25.3988C66.3956 25.3988 66.7637 25.8129 66.7637 26.3651C66.7637 26.8252 66.5336 27.1013 66.2115 27.2393C66.5796 27.3313 66.9017 27.6074 66.9017 28.1596C66.9017 28.9418 66.3036 29.3099 65.4754 29.3099C65.1073 29.3099 64.6011 29.3099 64.4171 29.2639V25.4448H64.371ZM65.0612 26.089V27.0553H65.5214C65.8434 27.0553 66.1195 26.9172 66.1195 26.5491C66.1195 26.2271 65.8895 26.089 65.5214 26.089C65.3373 26.043 65.1993 26.043 65.0612 26.089ZM65.0612 27.6534V28.6657C65.1533 28.6657 65.3373 28.7117 65.5214 28.7117C65.9815 28.7117 66.2115 28.5277 66.2115 28.1596C66.2115 27.8375 65.9815 27.6534 65.5214 27.6534H65.0612Z" fill="white"/>
<path d="M68.5121 26.779C68.6962 26.779 68.8342 26.733 68.9263 26.733C69.8925 26.733 70.3526 27.2391 70.3526 27.9753C70.3526 28.8036 69.7545 29.3097 68.7882 29.3097C68.4201 29.3097 68.052 29.3097 67.822 29.3097V25.4447H68.5121V26.779ZM68.5121 27.4232V28.7115C68.6502 28.7115 68.7422 28.7115 68.8803 28.7115C69.3864 28.7115 69.6624 28.4815 69.6624 28.0214C69.6624 27.6072 69.3864 27.3772 68.9263 27.3772C68.7882 27.3772 68.6502 27.3772 68.5121 27.4232ZM70.8588 25.4447H71.549V29.3097H70.8588V25.4447Z" fill="white"/>
<path d="M75.5981 28.9416C75.368 29.2177 74.8619 29.4017 74.3558 29.4017C73.1594 29.4017 72.3772 28.6195 72.3772 27.4232C72.3772 26.3189 73.0674 25.4447 74.3558 25.4447C74.8619 25.4447 75.276 25.5827 75.5521 25.8588L75.23 26.3649C74.9999 26.2269 74.7239 26.0888 74.3558 26.0888C73.6196 26.0888 73.1134 26.595 73.1134 27.4692C73.1134 28.2974 73.6656 28.8496 74.4478 28.8496C74.7699 28.8496 75.092 28.7575 75.368 28.5275L75.5981 28.9416Z" fill="white"/>
<path d="M77.8527 25.3988C79.003 25.3988 79.8772 26.181 79.8772 27.3774C79.8772 28.5277 79.003 29.3559 77.8527 29.3559C76.7024 29.3559 75.8282 28.5737 75.8282 27.3774C75.8742 26.2731 76.6564 25.3988 77.8527 25.3988ZM77.8527 28.7577C78.6809 28.7577 79.141 28.1596 79.141 27.3774C79.141 26.5951 78.5889 25.997 77.8527 25.997C77.1165 25.997 76.5643 26.5491 76.5643 27.3774C76.5643 28.1596 77.1625 28.7577 77.8527 28.7577Z" fill="white"/>
<path d="M80.7054 25.4447H81.3956V27.2852L82.914 25.4447H83.7422L82.1318 27.2392L83.8342 29.3097H82.96L81.3956 27.3312V29.3097H80.7054V25.4447Z" fill="white"/>
<path d="M85.9508 25.3988C87.1011 25.3988 87.9753 26.181 87.9753 27.3774C87.9753 28.5277 87.1011 29.3559 85.9508 29.3559C84.8005 29.3559 83.9262 28.5737 83.9262 27.3774C83.9723 26.2731 84.8005 25.3988 85.9508 25.3988ZM85.9508 28.7577C86.779 28.7577 87.2391 28.1596 87.2391 27.3774C87.2391 26.5951 86.687 25.997 85.9508 25.997C85.2146 25.997 84.6625 26.5491 84.6625 27.3774C84.6625 28.1596 85.2606 28.7577 85.9508 28.7577Z" fill="white"/>
<path d="M88.8036 29.3099V25.4448H89.4938V28.2056L91.5183 25.4448H92.1165V29.3099H91.4263V26.5491L89.4017 29.3099H88.8036ZM90.0459 24.4786C90.0919 24.7087 90.23 24.8007 90.506 24.8007C90.7361 24.8007 90.9202 24.7087 90.9662 24.4786H91.6103C91.6103 24.9387 91.1502 25.2608 90.552 25.2608C89.9079 25.2608 89.4938 24.9387 89.4477 24.4786H90.0459Z" fill="white"/>
<path d="M94.4171 25.4447H95.1072V28.6655H96.8097V25.4447H97.4998V28.6655H98.006V29.9999H97.4078V29.3097H94.4171V25.4447Z" fill="white"/>
<path d="M98.7422 25.4447H100.951V26.0888H99.4323V27.0551H100.813V27.6533H99.4323V28.6655H101.043V29.3097H98.7422V25.4447Z" fill="white"/>
<path d="M104.218 26.0888H103.067L102.975 26.825C102.745 29.0796 102.239 29.4477 101.503 29.3557V28.6655C101.779 28.7115 102.193 28.5735 102.377 26.2269L102.423 25.4447H104.862V29.3097H104.172V26.0888H104.218Z" fill="white"/>
<path d="M106.012 29.3097V25.4447H106.702V28.2054L108.727 25.4447H109.325V29.3097H108.635V26.549L106.61 29.3097H106.012Z" fill="white"/>
<path d="M13.5736 17.3466H10.3067L6.53373 5.84356L3.26686 17.3466H0L4.83128 0.230061H8.09814L11.9172 11.6871L15.138 0.230061H18.4049L13.5736 17.3466Z" fill="white"/>
<path d="M18.3588 17.3466L23.1901 0.230061H35.8895L35.0613 3.08282H25.9048L24.8005 6.99386H33.6809L32.8527 9.84661H24.0183L22.5919 14.4938H32.5306L31.7484 17.3466H18.3588Z" fill="white"/>
<path d="M44.0797 17.3466H40.3067L38.5122 0.230061H42.0091L43.2055 13.2055L51.2576 0.230061H54.7545L44.0797 17.3466Z" fill="white"/>
<path d="M52.6379 17.3466L57.5153 0.230061H70.1686L69.3864 3.08282H60.23L59.1257 6.99386H67.96L67.1778 9.84661H58.2975L56.8711 14.4938H66.8557L66.0275 17.3466H52.6379Z" fill="white"/>
<path d="M73.3895 17.3466H69.8466L74.6779 0.230061H82.2699C83.5582 0.230061 84.5705 0.368094 85.3067 0.644168C85.9969 0.920241 86.549 1.42638 86.9631 2.11656C87.3772 2.85276 87.5153 3.68097 87.4232 4.73925C87.3312 6.21164 86.7791 7.40797 85.8588 8.32821C84.9386 9.29447 83.5582 9.84661 81.7637 10.0767C82.1779 10.4908 82.592 10.9969 82.9141 11.6871C83.6042 13.0215 84.3404 14.908 85.1226 17.3466H81.3496C81.1196 16.3804 80.6134 14.8619 79.8772 12.8374C79.4631 11.7331 79.003 10.9969 78.4969 10.6288C78.1748 10.3988 77.6226 10.3067 76.7484 10.3067H75.322L73.3895 17.3466ZM76.1503 7.68405H78.0367C79.9232 7.68405 81.2116 7.59202 81.8098 7.36195C82.4539 7.13189 82.96 6.7638 83.3281 6.30368C83.6962 5.84356 83.9263 5.33741 83.9723 4.78527C84.0183 4.1411 83.7883 3.68097 83.3281 3.4049C83.0521 3.22085 82.3619 3.12882 81.3496 3.12882H77.4386L76.1503 7.68405Z" fill="#EB3223"/>
<path d="M88.2515 17.3466L93.1287 0.230061H105.828L105 3.08282H95.8435L94.7392 6.99386H103.574L102.791 9.84661H93.911L92.4846 14.4938H102.469L101.641 17.3466H88.2515Z" fill="white"/>
<path d="M106.058 11.8251L109.417 11.6411C109.371 12.6994 109.509 13.4356 109.785 13.8037C110.245 14.4018 111.165 14.7239 112.546 14.7239C113.696 14.7239 114.524 14.5399 115.077 14.1258C115.629 13.7116 115.905 13.2055 115.951 12.6534C115.997 12.1472 115.813 11.7331 115.399 11.365C115.123 11.089 114.34 10.6748 113.052 10.1227C111.764 9.52453 110.843 9.0644 110.245 8.69631C109.647 8.32821 109.233 7.82208 108.911 7.17791C108.589 6.57975 108.497 5.84355 108.543 5.01533C108.635 3.58895 109.279 2.39264 110.383 1.42638C111.488 0.460125 113.052 0 115.031 0C117.055 0 118.573 0.460125 119.586 1.42638C120.598 2.34663 121.15 3.63496 121.104 5.19938L117.699 5.33742C117.653 4.5092 117.423 3.91104 116.963 3.45092C116.503 3.03681 115.767 2.80675 114.754 2.80675C113.788 2.80675 113.052 2.9908 112.638 3.31289C112.178 3.63497 111.948 4.09509 111.902 4.60122C111.856 5.10736 112.04 5.47546 112.362 5.79754C112.73 6.11963 113.512 6.57975 114.8 7.13189C116.687 7.96011 117.929 8.6503 118.389 9.20244C119.126 9.98465 119.448 10.9969 119.356 12.1932C119.264 13.7116 118.573 15 117.285 16.0583C115.997 17.1165 114.294 17.6687 112.178 17.6687C110.705 17.6687 109.463 17.4386 108.405 16.9325C107.346 16.4264 106.656 15.7362 106.288 14.8619C106.058 13.9877 105.966 12.9294 106.058 11.8251Z" fill="white"/>
<path d="M128.65 17.3466H125.107L129.156 3.08282H124.141L124.969 0.230061H138.451L137.623 3.08282H132.699L128.65 17.3466Z" fill="white"/>
</svg>
