<?xml version="1.0" encoding="utf-8"?><svg xmlns="http://www.w3.org/2000/svg" xmlns:xlink="http://www.w3.org/1999/xlink"><symbol viewBox="0 0 15 20" id="icon-address" xmlns="http://www.w3.org/2000/svg"><path d="M7.311 0A7.303 7.303 0 0 0 0 7.311C0 12.978 7.311 20 7.311 20s7.311-7.044 7.311-12.689A7.303 7.303 0 0 0 7.312 0zm0 10.667a3.329 3.329 0 0 1-3.333-3.334A3.329 3.329 0 0 1 7.31 4a3.329 3.329 0 0 1 3.333 3.333 3.329 3.329 0 0 1-3.333 3.334z"/></symbol><symbol viewBox="0 0 20 13" id="icon-email" xmlns="http://www.w3.org/2000/svg"><path d="M1.5 0C1.205 0 .935.089.703.234l8.563 7.477c.452.395 1 .395 1.453 0L19.297.227A1.496 1.496 0 0 0 18.5 0h-17zM.086 1.016A1.495 1.495 0 0 0 0 1.5v10c0 .831.669 1.5 1.5 1.5h17c.831 0 1.5-.669 1.5-1.5v-10c0-.17-.034-.332-.086-.484l-8.539 7.453a2.096 2.096 0 0 1-2.766-.008L.086 1.016z"/></symbol><symbol viewBox="0 0 19 22" id="icon-play" xmlns="http://www.w3.org/2000/svg"><path d="M0 19.388V2.454C0 .916 1.662-.046 2.996.719l14.112 8.1c1.31.75 1.345 2.628.065 3.429L3.061 21.083C1.73 21.917 0 20.96 0 19.388z"/></symbol><symbol viewBox="0 0 28 24" id="icon-send" xmlns="http://www.w3.org/2000/svg"><path fill-rule="evenodd" clip-rule="evenodd" d="M0 24l28-12L0 0l.66 9.543L13.953 12 .754 14.457 0 24z"/></symbol></svg>