<svg width="20" height="13" viewBox="0 0 20 13" xmlns="http://www.w3.org/2000/svg"><path d="M1.5 0C1.20516 0 0.934533 0.088575 0.703125 0.234375L9.26562 7.71094C9.71809 8.10621 10.2655 8.10619 10.7188 7.71094L19.2969 0.226562C19.0663 0.0822375 18.7932 0 18.5 0H1.5ZM0.0859375 1.01562C0.033975 1.16813 0 1.32948 0 1.5V11.5C0 12.331 0.669015 13 1.5 13H18.5C19.331 13 20 12.331 20 11.5V1.5C20 1.32948 19.966 1.16813 19.9141 1.01562L11.375 8.46875C10.5795 9.16263 9.40473 9.15577 8.60938 8.461L0.0859375 1.01569V1.01562Z"/></svg>
